<svg width="16" height="16" viewBox="0 0 16 16" >
<g id="&#231;&#187;&#132; 249" clip-path="url(#clip0_759_5382)">
<g id="Frame">
<path id="Vector" d="M8.0012 1.65611C8.31422 1.65611 8.62997 1.78897 8.93985 2.051C9.28348 2.34161 9.61181 2.78913 9.88929 3.3434C10.1858 3.93622 10.4195 4.6317 10.5842 5.41042C10.7573 6.22878 10.845 7.09963 10.845 7.99904C10.845 8.89846 10.7573 9.76931 10.5842 10.5877C10.4192 11.3662 10.1856 12.0612 9.88915 12.6545C9.61168 13.2094 9.28335 13.6563 8.93985 13.9475C8.63011 14.2095 8.31436 14.3424 8.0012 14.3424C7.68805 14.3424 7.37243 14.2095 7.06256 13.9475C6.71892 13.6569 6.39073 13.2094 6.11311 12.6551C5.81663 12.0623 5.58289 11.3668 5.41818 10.5881C5.24513 9.76917 5.1567 8.89832 5.1567 7.99891C5.1567 7.09949 5.24445 6.22864 5.4175 5.41028C5.58221 4.63115 5.81608 3.93609 6.11243 3.34327C6.38991 2.78831 6.71823 2.34147 7.06187 2.05087C7.37229 1.78897 7.68818 1.65611 8.0012 1.65611ZM8.0012 1C6.06828 1 4.50195 4.1336 4.50195 7.9985C4.50195 11.8634 6.06896 14.997 8.0012 14.997C9.93344 14.997 11.5004 11.8634 11.5004 7.9985C11.5004 4.1336 9.93344 1 8.0012 1Z" />
<path id="Vector_2" d="M8.0012 1.65611C8.31422 1.65611 8.62997 1.78897 8.93985 2.051C9.28348 2.34161 9.61181 2.78913 9.88929 3.3434C10.1858 3.93622 10.4195 4.6317 10.5842 5.41042C10.7573 6.22878 10.845 7.09963 10.845 7.99904C10.845 8.89846 10.7573 9.76931 10.5842 10.5877C10.4192 11.3662 10.1856 12.0612 9.88915 12.6545C9.61168 13.2094 9.28335 13.6563 8.93985 13.9475C8.63011 14.2095 8.31436 14.3424 8.0012 14.3424C7.68805 14.3424 7.37243 14.2095 7.06256 13.9475C6.71892 13.6569 6.39073 13.2094 6.11311 12.6551C5.81663 12.0623 5.58289 11.3668 5.41818 10.5881C5.24513 9.76917 5.1567 8.89832 5.1567 7.99891C5.1567 7.09949 5.24445 6.22864 5.4175 5.41028C5.58221 4.63115 5.81608 3.93609 6.11243 3.34327C6.38991 2.78831 6.71823 2.34147 7.06187 2.05087C7.37229 1.78897 7.68818 1.65611 8.0012 1.65611ZM8.0012 1C6.06828 1 4.50195 4.1336 4.50195 7.9985C4.50195 11.8634 6.06896 14.997 8.0012 14.997C9.93344 14.997 11.5004 11.8634 11.5004 7.9985C11.5004 4.1336 9.93344 1 8.0012 1Z" />
<g id="Vector_3">
<path d="M4.56312 4.0258C5.98879 4.0258 7.76015 4.57652 9.42311 5.53662C10.2022 5.98633 10.9123 6.49769 11.5344 7.05675C12.1266 7.58888 12.6119 8.13864 12.9772 8.6921C13.3189 9.20988 13.5418 9.71727 13.6218 10.1606C13.6938 10.5598 13.6509 10.8998 13.4944 11.1708C13.3536 11.4147 13.1178 11.6073 12.7935 11.7434C12.4303 11.8958 11.9748 11.9731 11.4402 11.9731C10.0144 11.9731 8.24293 11.4223 6.57997 10.4622C5.80084 10.0125 5.09074 9.50116 4.46867 8.9421C3.87653 8.41011 3.39128 7.8598 3.02605 7.30675C2.68432 6.78897 2.46138 6.28158 2.38142 5.8383C2.30938 5.43903 2.3523 5.09908 2.50881 4.82803C2.6496 4.58417 2.88539 4.39158 3.20976 4.25543C3.57294 4.10303 4.02853 4.0258 4.56366 4.0258M4.56366 3.36969C3.33606 3.36969 2.37855 3.74148 1.94073 4.49997C0.974065 6.17387 2.90371 9.09779 6.25123 11.0304C8.08219 12.0875 9.95756 12.6297 11.4396 12.6297C12.6672 12.6297 13.6247 12.2579 14.0625 11.4994C15.029 9.82498 13.0984 6.90106 9.75116 4.96841C7.92021 3.91139 6.04483 3.36914 4.56284 3.36914L4.56366 3.36969Z" />
<path d="M4.56312 4.0258C5.98879 4.0258 7.76015 4.57652 9.42311 5.53662C10.2022 5.98633 10.9123 6.49769 11.5344 7.05675C12.1266 7.58888 12.6119 8.13864 12.9772 8.6921C13.3189 9.20988 13.5418 9.71727 13.6218 10.1606C13.6938 10.5598 13.6509 10.8998 13.4944 11.1708C13.3536 11.4147 13.1178 11.6073 12.7935 11.7434C12.4303 11.8958 11.9748 11.9731 11.4402 11.9731C10.0144 11.9731 8.24293 11.4223 6.57997 10.4622C5.80084 10.0125 5.09074 9.50116 4.46867 8.9421C3.87653 8.41011 3.39128 7.8598 3.02605 7.30675C2.68432 6.78897 2.46138 6.28158 2.38142 5.8383C2.30938 5.43903 2.3523 5.09908 2.50881 4.82803C2.6496 4.58417 2.88539 4.39158 3.20976 4.25543C3.57294 4.10303 4.02853 4.0258 4.56366 4.0258M4.56366 3.36969C3.33606 3.36969 2.37855 3.74148 1.94073 4.49997C0.974065 6.17387 2.90371 9.09779 6.25123 11.0304C8.08219 12.0875 9.95756 12.6297 11.4396 12.6297C12.6672 12.6297 13.6247 12.2579 14.0625 11.4994C15.029 9.82498 13.0984 6.90106 9.75116 4.96841C7.92021 3.91139 6.04483 3.36914 4.56284 3.36914L4.56366 3.36969Z" stroke-width="0.3"/>
</g>
<g id="Vector_4">
<path d="M11.4404 4.02525C11.9756 4.02525 12.4309 4.10248 12.7936 4.25489C13.1179 4.39158 13.3541 4.58294 13.4945 4.82748C13.651 5.09853 13.6939 5.43848 13.6218 5.83775C13.542 6.28062 13.3191 6.78843 12.9772 7.3062C12.6121 7.85939 12.1267 8.40956 11.5346 8.94156C10.9128 9.50062 10.2024 10.012 9.42357 10.4618C7.76061 11.4218 5.98911 11.9725 4.56344 11.9725C4.02817 11.9725 3.57272 11.8953 3.21022 11.7429C2.88599 11.6062 2.64979 11.4148 2.50927 11.1703C2.35276 10.8992 2.30984 10.5593 2.38188 10.16C2.46171 9.71713 2.68465 9.20933 3.02651 8.69155C3.39106 8.1381 3.87644 7.58833 4.46844 7.0562C5.09065 6.49714 5.80089 5.98565 6.57975 5.53608C8.24271 4.57597 10.0142 4.02539 11.4401 4.02525M11.4401 3.36914C9.9583 3.36914 8.08251 3.91084 6.25183 4.96841C2.90417 6.90051 0.974525 9.82443 1.94037 11.4983C2.37778 12.2568 3.33556 12.6286 4.56331 12.6286C6.04515 12.6286 7.92094 12.0869 9.75162 11.0293C13.0989 9.09725 15.0295 6.17332 14.0631 4.49943C13.6257 3.74094 12.6679 3.36914 11.4401 3.36914Z" />
<path d="M11.4404 4.02525C11.9756 4.02525 12.4309 4.10248 12.7936 4.25489C13.1179 4.39158 13.3541 4.58294 13.4945 4.82748C13.651 5.09853 13.6939 5.43848 13.6218 5.83775C13.542 6.28062 13.3191 6.78843 12.9772 7.3062C12.6121 7.85939 12.1267 8.40956 11.5346 8.94156C10.9128 9.50062 10.2024 10.012 9.42357 10.4618C7.76061 11.4218 5.98911 11.9725 4.56344 11.9725C4.02817 11.9725 3.57272 11.8953 3.21022 11.7429C2.88599 11.6062 2.64979 11.4148 2.50927 11.1703C2.35276 10.8992 2.30984 10.5593 2.38188 10.16C2.46171 9.71713 2.68465 9.20933 3.02651 8.69155C3.39106 8.1381 3.87644 7.58833 4.46844 7.0562C5.09065 6.49714 5.80089 5.98565 6.57975 5.53608C8.24271 4.57597 10.0142 4.02539 11.4401 4.02525M11.4401 3.36914C9.9583 3.36914 8.08251 3.91084 6.25183 4.96841C2.90417 6.90051 0.974525 9.82443 1.94037 11.4983C2.37778 12.2568 3.33556 12.6286 4.56331 12.6286C6.04515 12.6286 7.92094 12.0869 9.75162 11.0293C13.0989 9.09725 15.0295 6.17332 14.0631 4.49943C13.6257 3.74094 12.6679 3.36914 11.4401 3.36914Z" stroke-width="0.3"/>
</g>
<path id="Vector_5" d="M7.56199 8.32994H5.81236C5.72537 8.32992 5.64194 8.29535 5.58044 8.23383C5.51893 8.17231 5.48438 8.08888 5.48438 8.00188C5.48438 7.91489 5.51893 7.83146 5.58044 7.76994C5.64194 7.70842 5.72537 7.67385 5.81236 7.67383H7.56199C7.64898 7.67385 7.7324 7.70842 7.79391 7.76994C7.85542 7.83146 7.88997 7.91489 7.88997 8.00188C7.88997 8.08888 7.85542 8.17231 7.79391 8.23383C7.7324 8.29535 7.64898 8.32992 7.56199 8.32994Z" />
<path id="Vector_6" d="M6.68743 9.20449C6.60042 9.20449 6.51698 9.16993 6.45546 9.10841C6.39394 9.04689 6.35938 8.96345 6.35938 8.87644V7.12682C6.35939 7.03982 6.39396 6.9564 6.45548 6.89489C6.517 6.83338 6.60044 6.79883 6.68743 6.79883C6.77442 6.79883 6.85786 6.83338 6.91938 6.89489C6.9809 6.9564 7.01547 7.03982 7.01548 7.12682V8.87644C7.01548 8.96345 6.98092 9.04689 6.9194 9.10841C6.85788 9.16993 6.77443 9.20449 6.68743 9.20449ZM10.1867 8.32968H8.87446C8.78747 8.32966 8.70404 8.29509 8.64253 8.23357C8.58103 8.17205 8.54647 8.08862 8.54647 8.00163C8.54647 7.91463 8.58103 7.8312 8.64253 7.76968C8.70404 7.70816 8.78747 7.67359 8.87446 7.67357H10.1867C10.2737 7.67359 10.3571 7.70816 10.4186 7.76968C10.4801 7.8312 10.5147 7.91463 10.5147 8.00163C10.5147 8.08862 10.4801 8.17205 10.4186 8.23357C10.3571 8.29509 10.2737 8.32966 10.1867 8.32968Z" />
</g>
</g>
<defs>
<clipPath id="clip0_759_5382">
<rect width="16" height="16" />
</clipPath>
</defs>
</svg>
