<svg width="12" height="12" viewBox="0 0 12 12" fill="none" xmlns="http://www.w3.org/2000/svg">
<g id="arrow/menu/down 3" clip-path="url(#clip0_752_6739)">
<path id="Combined Shape" fill-rule="evenodd" clip-rule="evenodd" d="M10.8762 3.1204C10.6838 2.94718 10.3874 2.96271 10.2141 3.1551L6.01608 7.81752L1.81802 3.1551C1.64479 2.96271 1.3484 2.94718 1.15601 3.1204C0.963627 3.29363 0.948093 3.59002 1.12132 3.78241L5.58713 8.7422C5.61252 8.79227 5.6474 8.83859 5.69162 8.87841C5.78414 8.96172 5.90072 9.00137 6.01608 8.99868C6.13144 9.00137 6.24802 8.96171 6.34054 8.87841C6.38476 8.83859 6.41964 8.79227 6.44503 8.7422L10.9108 3.78241C11.0841 3.59002 11.0685 3.29363 10.8762 3.1204Z" fill="#18181F"/>
</g>
<defs>
<clipPath id="clip0_752_6739">
<rect width="12" height="12" fill="white" transform="matrix(-1 -8.74228e-08 -8.74228e-08 1 12 0)"/>
</clipPath>
</defs>
</svg>
