<svg width="24" height="24" viewBox="0 0 24 24" xmlns="http://www.w3.org/2000/svg">
<g id="Group 64315">
<g id="&#228;&#190;&#155;&#229;&#186;&#148;&#229;&#149;&#134;&#229;&#133;&#179;&#231;&#179;&#187;&#229;&#155;&#190;&#232;&#176;&#177;" clip-path="url(#clip0_759_5403)">
<path id="Vector" d="M19.102 24H4.89796C2.20408 24 0 21.7959 0 19.102V4.89796C0 2.20408 2.20408 0 4.89796 0H19.102C21.7959 0 24 2.20408 24 4.89796V19.102C24 21.7959 21.7959 24 19.102 24Z" fill="#919CEE"/>
<path id="Vector_2" opacity="0.6" d="M17.5529 4.92004H5.84672C5.00693 4.92004 4.31982 5.67353 4.31982 6.59446V17.4056C4.31982 18.3266 5.00693 19.08 5.84672 19.08H17.5529C18.3927 19.08 19.0798 18.3266 19.0798 17.4056V6.59446C19.0798 5.67353 18.3927 4.92004 17.5529 4.92004Z" fill="white" fill-opacity="0.88"/>
<g id="&#231;&#159;&#165;&#232;&#175;&#134;&#229;&#155;&#190;&#232;&#176;&#177; 1">
<path id="Vector_3" d="M7.49469 6.75952L11.3327 7.25978C11.5875 7.29316 11.8455 7.29316 12.1003 7.25978C14.0361 6.95975 15.2039 6.7931 15.9383 6.72626C16.0783 6.71058 16.22 6.72489 16.3539 6.76825C16.4879 6.8116 16.6111 6.883 16.7153 6.97768C16.8195 7.07236 16.9023 7.18815 16.9581 7.31732C17.014 7.44649 17.0416 7.58608 17.0392 7.72677V15.4961C17.0418 15.7347 16.9593 15.9665 16.8064 16.1498C16.6535 16.3331 16.4403 16.4561 16.205 16.4966L12.1669 17.2301C11.859 17.2968 11.5404 17.2968 11.2325 17.2301L7.19441 16.4966C6.96171 16.4505 6.75191 16.326 6.60002 16.1439C6.44813 15.9618 6.36336 15.7331 6.35985 15.4961V7.76004C6.35537 7.6157 6.38281 7.47215 6.44021 7.33962C6.49761 7.20709 6.58356 7.08884 6.69193 6.9933C6.8003 6.89775 6.92843 6.82726 7.06719 6.78686C7.20594 6.74645 7.35191 6.73712 7.49469 6.75952Z" fill="white"/>
<path id="Vector_4" d="M9.3645 8.77365H9.56458V8.77271C9.77833 8.77549 9.98932 8.82127 10.185 8.90732C10.3806 8.99337 10.5569 9.11793 10.7033 9.27356C10.8497 9.42918 10.9632 9.61269 11.0371 9.81312C11.111 10.0135 11.1436 10.2268 11.1332 10.4401C11.1359 10.8752 10.9682 11.2941 10.6658 11.6073L11.4335 12.7744C11.5596 12.7202 11.697 12.6974 11.834 12.7079C12.1389 12.7056 12.4347 12.8119 12.6682 13.0079L13.8363 12.041C13.8088 11.9435 13.7976 11.8421 13.803 11.741C13.8024 11.5722 13.8455 11.4062 13.9282 11.259C14.0109 11.1119 14.1303 10.9886 14.2748 10.9013C14.4194 10.814 14.5841 10.7657 14.7529 10.7609C14.9217 10.7561 15.0889 10.7951 15.2382 10.8742C15.4103 10.9626 15.5505 11.1026 15.639 11.2746C15.7159 11.424 15.7532 11.5906 15.7474 11.7585C15.7417 11.9264 15.6929 12.09 15.6059 12.2338C15.5189 12.3776 15.3965 12.4967 15.2504 12.5798C15.1042 12.6629 14.9392 12.7072 14.7711 12.7085C14.5993 12.7076 14.4293 12.6736 14.2704 12.6084L13.1023 13.5754C13.1023 13.7087 13.1356 13.8085 13.1356 14.0088C13.1305 14.227 13.0712 14.4406 12.963 14.6303C12.8548 14.82 12.7012 14.9799 12.5159 15.0956C12.3307 15.2113 12.1195 15.2792 11.9015 15.2932C11.6834 15.3073 11.4653 15.267 11.2667 15.1759C11.1159 15.1159 10.9789 15.0259 10.8642 14.9112C10.7494 14.7965 10.6593 14.6597 10.5992 14.509C10.5138 14.2773 10.4874 14.0279 10.5224 13.7834C10.5574 13.5389 10.6526 13.3069 10.7996 13.1084L10.032 11.9412C9.86236 12.0095 9.68086 12.0436 9.498 12.0413C9.06628 12.035 8.65403 11.8608 8.34873 11.5558C8.04343 11.2507 7.86912 10.8388 7.86279 10.4075V10.2741C7.8668 9.8774 8.0263 9.49807 8.30706 9.21755C8.58783 8.93702 8.96747 8.77765 9.3645 8.77365Z" fill="#919CEE"/>
</g>
</g>
</g>
<defs>
<clipPath id="clip0_759_5403">
<rect width="24" height="24"/>
</clipPath>
</defs>
</svg>
