<svg width="16" height="16" viewBox="0 0 16 16" >
<g id="&#231;&#187;&#132; 236" clip-path="url(#clip0_759_5372)">
<g id="Frame">
<path id="Vector" d="M8.01416 4.59998C7.02354 4.59998 6.21729 3.79373 6.21729 2.8031C6.21729 1.81248 7.02354 1.00623 8.01416 1.00623C9.00479 1.00623 9.81104 1.81248 9.81104 2.8031C9.80947 3.79373 9.00322 4.59998 8.01416 4.59998ZM8.01416 2.00779C7.5751 2.00779 7.21729 2.3656 7.21729 2.80466C7.21729 3.24373 7.5751 3.60154 8.01416 3.60154C8.45322 3.60154 8.81104 3.24373 8.81104 2.80466C8.81104 2.3656 8.45322 2.00779 8.01416 2.00779Z" />
<path id="Vector_2" d="M10.5252 8.10156C10.2486 8.10156 10.0252 7.87812 10.0252 7.60156C10.0252 6.47812 9.11113 5.5625 7.98613 5.5625C6.86113 5.5625 5.94707 6.47656 5.94707 7.60156C5.94707 7.87812 5.72363 8.10156 5.44707 8.10156C5.17051 8.10156 4.94707 7.87812 4.94707 7.60156C4.94707 5.92656 6.30957 4.5625 7.98613 4.5625C9.6627 4.5625 11.0252 5.925 11.0252 7.60156C11.0252 7.87656 10.8018 8.10156 10.5252 8.10156ZM4.09082 11.4547C3.1002 11.4547 2.29395 10.6484 2.29395 9.65781C2.29395 8.66719 3.1002 7.86094 4.09082 7.86094C5.08145 7.86094 5.8877 8.66719 5.8877 9.65781C5.8877 10.6484 5.08145 11.4547 4.09082 11.4547ZM4.09082 8.8625C3.65176 8.8625 3.29395 9.22031 3.29395 9.65937C3.29395 10.0984 3.65176 10.4562 4.09082 10.4562C4.52988 10.4562 4.8877 10.0984 4.8877 9.65937C4.8877 9.22031 4.52988 8.8625 4.09082 8.8625Z" />
<path id="Vector_3" d="M6.60156 14.9562C6.325 14.9562 6.10156 14.7328 6.10156 14.4562C6.10156 13.3328 5.1875 12.4172 4.0625 12.4172C2.9375 12.4172 2.02344 13.3312 2.02344 14.4562C2.02344 14.7328 1.8 14.9562 1.52344 14.9562C1.24687 14.9562 1.02344 14.7328 1.02344 14.4562C1.02344 12.7812 2.38594 11.4172 4.0625 11.4172C5.73906 11.4172 7.10156 12.7797 7.10156 14.4562C7.10156 14.7312 6.87813 14.9562 6.60156 14.9562Z" />
<path id="Vector_4" d="M11.958 11.4562C10.9674 11.4562 10.1611 10.65 10.1611 9.65936C10.1611 8.66874 10.9674 7.86249 11.958 7.86249C12.9486 7.86249 13.7549 8.66874 13.7549 9.65936C13.7549 10.65 12.9486 11.4562 11.958 11.4562ZM11.958 8.86249C11.5189 8.86249 11.1611 9.2203 11.1611 9.65936C11.1611 10.0984 11.5189 10.4562 11.958 10.4562C12.3971 10.4562 12.7549 10.0984 12.7549 9.65936C12.7549 9.2203 12.3971 8.86249 11.958 8.86249Z" />
<path id="Vector_5" d="M14.4702 14.9562C14.1937 14.9562 13.9702 14.7328 13.9702 14.4562C13.9702 13.3328 13.0562 12.4172 11.9312 12.4172C10.8062 12.4172 9.89209 13.3312 9.89209 14.4562C9.89209 14.7328 9.66865 14.9562 9.39209 14.9562C9.11553 14.9562 8.89209 14.7328 8.89209 14.4562C8.89209 12.7812 10.2546 11.4172 11.9312 11.4172C13.6077 11.4172 14.9702 12.7812 14.9702 14.4562C14.9702 14.7328 14.7452 14.9562 14.4702 14.9562Z" />
</g>
</g>
<defs>
<clipPath id="clip0_759_5372">
<rect width="16" height="16" />
</clipPath>
</defs>
</svg>
