<svg width="16" height="16" viewBox="0 0 16 16" fill="none" xmlns="http://www.w3.org/2000/svg">
<g id="Frame">
<path id="Vector" d="M6.16699 1.6665H13.167C13.4764 1.6665 13.7732 1.78942 13.992 2.00821C14.2107 2.22701 14.3337 2.52375 14.3337 2.83317V9.83317C14.3337 10.1426 14.2107 10.4393 13.992 10.6581C13.7732 10.8769 13.4764 10.9998 13.167 10.9998H6.16699C5.85757 10.9998 5.56083 10.8769 5.34203 10.6581C5.12324 10.4393 5.00033 10.1426 5.00033 9.83317V2.83317C5.00033 2.52375 5.12324 2.22701 5.34203 2.00821C5.56083 1.78942 5.85757 1.6665 6.16699 1.6665ZM6.16699 2.6665C6.12279 2.6665 6.0804 2.68406 6.04914 2.71532C6.01789 2.74658 6.00033 2.78897 6.00033 2.83317V9.83317C6.00033 9.85506 6.00464 9.87673 6.01301 9.89695C6.02139 9.91717 6.03367 9.93554 6.04914 9.95102C6.06462 9.9665 6.08299 9.97877 6.10321 9.98715C6.12343 9.99553 6.14511 9.99984 6.16699 9.99984H13.167C13.2112 9.99984 13.2536 9.98228 13.2848 9.95102C13.3161 9.91977 13.3337 9.87737 13.3337 9.83317V2.83317C13.3337 2.78897 13.3161 2.74658 13.2848 2.71532C13.2536 2.68406 13.2112 2.6665 13.167 2.6665H6.16699ZM10.0003 11.9998C10.0003 11.8672 10.053 11.7401 10.1468 11.6463C10.2405 11.5525 10.3677 11.4998 10.5003 11.4998C10.6329 11.4998 10.7601 11.5525 10.8539 11.6463C10.9476 11.7401 11.0003 11.8672 11.0003 11.9998V13.1665C11.0003 13.4759 10.8774 13.7727 10.6586 13.9915C10.4398 14.2103 10.1431 14.3332 9.83366 14.3332H2.83366C2.52424 14.3332 2.22749 14.2103 2.0087 13.9915C1.78991 13.7727 1.66699 13.4759 1.66699 13.1665V6.1665C1.66699 5.85708 1.78991 5.56034 2.0087 5.34155C2.22749 5.12275 2.52424 4.99984 2.83366 4.99984H4.00033C4.13293 4.99984 4.26011 5.05252 4.35388 5.14628C4.44765 5.24005 4.50033 5.36723 4.50033 5.49984C4.50033 5.63245 4.44765 5.75962 4.35388 5.85339C4.26011 5.94716 4.13293 5.99984 4.00033 5.99984H2.83366C2.78946 5.99984 2.74706 6.0174 2.71581 6.04865C2.68455 6.07991 2.66699 6.1223 2.66699 6.1665V13.1665C2.66699 13.2107 2.68455 13.2531 2.71581 13.2844C2.74706 13.3156 2.78946 13.3332 2.83366 13.3332H9.83366C9.87786 13.3332 9.92025 13.3156 9.95151 13.2844C9.98277 13.2531 10.0003 13.2107 10.0003 13.1665V11.9998Z" fill="#24A36F"/>
</g>
</svg>
