<svg width="19" height="19" viewBox="0 0 19 19" xmlns="http://www.w3.org/2000/svg">
<g id="Frame">
<path id="Vector" d="M10.8749 15.001C10.5289 15.001 10.25 14.7222 10.25 14.3761V7.49892C10.25 7.15287 10.5289 6.87402 10.8749 6.87402C11.2209 6.87402 11.4998 7.15287 11.4998 7.49892V14.3728C11.4998 14.7188 11.2209 15.001 10.8749 15.001Z"/>
<path id="Vector_2" d="M7.1249 15.001C6.77885 15.001 6.5 14.7222 6.5 14.3761V7.49892C6.5 7.15287 6.77885 6.87402 7.1249 6.87402C7.47094 6.87402 7.74979 7.15287 7.74979 7.49892V14.3728C7.74979 14.7188 7.47094 15.001 7.1249 15.001Z" />
<path id="Vector_3" d="M17.1255 4.37447H14.001V3.12468C14.001 2.08991 13.1679 1.25 12.1398 1.25H5.87405C4.83928 1.25 3.99937 2.08991 3.99937 3.12468V4.37447H0.874895C0.528851 4.37447 0.25 4.65333 0.25 4.99937C0.25 5.34541 0.528851 5.62426 0.874895 5.62426H17.1255C17.4716 5.62426 17.7504 5.34541 17.7504 4.99937C17.7504 4.65333 17.4716 4.37447 17.1255 4.37447ZM5.24916 3.12468C5.24916 2.782 5.53137 2.49979 5.87405 2.49979H12.1398C12.4825 2.49979 12.7513 2.77528 12.7513 3.12468V4.37447H5.24916V3.12468Z"/>
<path id="Vector_4" d="M13.3732 18.7503H4.62469C3.58991 18.7503 2.75 17.9104 2.75 16.8756V7.49208C2.75 7.14604 3.02885 6.86719 3.3749 6.86719C3.72094 6.86719 3.99979 7.14604 3.99979 7.49208V16.8756C3.99979 17.2216 4.282 17.5005 4.62469 17.5005H13.3766C13.7226 17.5005 14.0015 17.2216 14.0015 16.8756V7.5156C14.0015 7.16956 14.2803 6.89071 14.6264 6.89071C14.9724 6.89071 15.2513 7.16956 15.2513 7.5156V16.8756C15.2479 17.907 14.408 18.7503 13.3732 18.7503Z"/>
</g>
</svg>
