<svg width="20" height="20" viewBox="0 0 20 20" fill="none" xmlns="http://www.w3.org/2000/svg">
<g id="Frame">
<g id="Group 64340">
<path id="Vector" d="M18.047 18.8341H1.95193C1.42703 18.8341 1 18.4185 1 17.9078V11.2149C1 10.8326 1.30996 10.5226 1.69231 10.5226C2.07466 10.5226 2.38462 10.8326 2.38462 11.2149V17.4494H17.6143V11.2344C17.6143 10.8521 17.9243 10.5421 18.3066 10.5421C18.689 10.5421 18.9989 10.8521 18.9989 11.2344V17.9077C18.9989 18.4185 18.5719 18.8341 18.047 18.8341Z" fill="#24A36F"/>
<path id="Vector_2" d="M10.0323 0.940185C10.4147 0.940185 10.7246 1.25014 10.7246 1.63249L10.7246 12.7062C10.7246 13.0886 10.4146 13.3985 10.0323 13.3985C9.64995 13.3985 9.33999 13.0886 9.33999 12.7062L9.33999 1.63249C9.33999 1.25014 9.64997 0.940184 10.0323 0.940185Z" fill="#24A36F"/>
<path id="Vector_3" d="M14.6085 8.93945C14.7832 8.93945 14.958 9.00513 15.0927 9.13697C15.366 9.4044 15.3707 9.84274 15.1033 10.116L10.5275 14.7914C10.2601 15.0647 9.8218 15.0694 9.54854 14.802C9.27527 14.5346 9.27053 14.0962 9.53798 13.823L14.1137 9.14753C14.2493 9.00898 14.4289 8.93945 14.6085 8.93945Z" fill="#24A36F"/>
<path id="Vector_4" d="M5.42429 8.93944C5.60399 8.93944 5.78352 9.00895 5.91912 9.14752L10.4949 13.823C10.7623 14.0962 10.7576 14.5346 10.4843 14.802C10.211 15.0694 9.77272 15.0647 9.50529 14.7914L4.92955 10.116C4.66212 9.84271 4.66684 9.40439 4.94011 9.13696C5.07481 9.00514 5.24961 8.93944 5.42429 8.93944Z" fill="#24A36F"/>
</g>
</g>
</svg>
