<svg width="20" height="20" viewBox="0 0 20 20" fill="none" xmlns="http://www.w3.org/2000/svg">
<g id="Frame">
<path id="Vector" d="M16.072 2.01546C16.1315 1.9538 16.2028 1.90461 16.2816 1.87078C16.3603 1.83694 16.445 1.81913 16.5308 1.81838C16.6165 1.81764 16.7015 1.83397 16.7809 1.86644C16.8602 1.8989 16.9323 1.94684 16.9929 2.00746C17.0535 2.06808 17.1015 2.14016 17.1339 2.21951C17.1664 2.29885 17.1827 2.38386 17.182 2.46959C17.1812 2.55531 17.1634 2.64003 17.1296 2.7188C17.0957 2.79757 17.0466 2.86881 16.9849 2.92837L7.85519 12.0583C7.7341 12.1794 7.56987 12.2474 7.39862 12.2474C7.22738 12.2474 7.06315 12.1794 6.94206 12.0583C6.82098 11.9372 6.75295 11.773 6.75295 11.6017C6.75295 11.4305 6.82098 11.2663 6.94206 11.1452L16.072 2.01567V2.01546ZM15.8828 8.7129C15.8828 8.54168 15.9508 8.37746 16.0719 8.25638C16.193 8.13531 16.3572 8.06729 16.5284 8.06729C16.6997 8.06729 16.8639 8.13531 16.985 8.25638C17.106 8.37746 17.1741 8.54168 17.1741 8.7129V15.8147C17.1741 17.1221 16.1142 18.182 14.8068 18.182H3.18563C1.87825 18.182 0.818359 17.1221 0.818359 15.8147V4.19357C0.818359 2.88619 1.87825 1.82629 3.18563 1.82629H10.0722C10.2435 1.82629 10.4077 1.89431 10.5288 2.01539C10.6498 2.13647 10.7179 2.30068 10.7179 2.47191C10.7179 2.64314 10.6498 2.80736 10.5288 2.92843C10.4077 3.04951 10.2435 3.11753 10.0722 3.11753H3.18563C2.90025 3.11753 2.62656 3.2309 2.42476 3.4327C2.22297 3.63449 2.1096 3.90818 2.1096 4.19357V15.8147C2.1096 16.1001 2.22297 16.3738 2.42476 16.5756C2.62656 16.7774 2.90025 16.8908 3.18563 16.8908H14.8068C15.0922 16.8908 15.3659 16.7774 15.5677 16.5756C15.7695 16.3738 15.8828 16.1001 15.8828 15.8147V8.7129Z" fill="#24A36F"/>
</g>
</svg>
