<svg width="16" height="16" viewBox="0 0 16 16" fill="none" xmlns="http://www.w3.org/2000/svg">
<g id="&#231;&#187;&#132; 236" clip-path="url(#clip0_743_57889)">
<g id="&#231;&#187;&#132; 246" clip-path="url(#clip1_743_57889)">
<g id="Frame">
<path id="Vector" d="M14.2967 9.94385H12.9527V8.86385C12.9527 8.31157 12.505 7.86385 11.9527 7.86385H8.66475V6.79985H9.88075C10.4887 6.79985 10.9847 6.30385 10.9847 5.69585V3.15185C10.9847 2.54385 10.4887 2.04785 9.88075 2.04785H6.38475C5.77675 2.04785 5.28075 2.54385 5.28075 3.15185V5.69585C5.28075 6.30385 5.77675 6.79985 6.38475 6.79985H7.65675V7.86385H4.32075C3.76847 7.86385 3.32075 8.31157 3.32075 8.86385V9.94385H2.07275C1.46475 9.94385 0.96875 10.4399 0.96875 11.0479V13.5999C0.96875 14.2079 1.46475 14.7039 2.07275 14.7039H5.56875C6.17675 14.7039 6.67275 14.2079 6.67275 13.5999V11.0479C6.67275 10.4399 6.17675 9.94385 5.56875 9.94385H4.24075V8.78385H12.0327V9.94385H10.8007C10.1927 9.94385 9.69675 10.4399 9.69675 11.0479V13.5999C9.69675 14.2079 10.1927 14.7039 10.8007 14.7039H14.2967C14.9047 14.7039 15.4007 14.2079 15.4007 13.5999V11.0479C15.4007 10.4399 14.9047 9.94385 14.2967 9.94385ZM5.56875 10.8639C5.67275 10.8639 5.75275 10.9439 5.75275 11.0479V13.5999C5.75275 13.7039 5.67275 13.7839 5.56875 13.7839H2.07275C1.96875 13.7839 1.88875 13.7039 1.88875 13.5999V11.0479C1.88875 10.9439 1.96875 10.8639 2.07275 10.8639H5.56875ZM6.39275 5.87985C6.28875 5.87985 6.20875 5.79985 6.20875 5.69585V3.15185C6.20875 3.04785 6.28875 2.96785 6.39275 2.96785H9.88875C9.99275 2.96785 10.0727 3.04785 10.0727 3.15185V5.69585C10.0727 5.79985 9.99275 5.87985 9.88875 5.87985H6.39275ZM14.4807 13.5999C14.4807 13.7039 14.4007 13.7839 14.2967 13.7839H10.8007C10.6967 13.7839 10.6167 13.7039 10.6167 13.5999V11.0479C10.6167 10.9439 10.6967 10.8639 10.8007 10.8639H14.2967C14.4007 10.8639 14.4807 10.9439 14.4807 11.0479V13.5999Z" fill="#24A36F"/>
</g>
</g>
</g>
<defs>
<clipPath id="clip0_743_57889">
<rect width="16" height="16" fill="white"/>
</clipPath>
<clipPath id="clip1_743_57889">
<rect width="16" height="16" fill="white"/>
</clipPath>
</defs>
</svg>
