<svg width="16" height="15" viewBox="0 0 16 15" fill="none" xmlns="http://www.w3.org/2000/svg">
<g id="Group 64345">
<path id="Vector 272" d="M0 3.99951V14.9989L14.3768 8.25637V5.82799C14.3768 5.2757 13.9291 4.82799 13.3768 4.82799H7.16503C6.66011 4.82799 6.25079 4.41867 6.25079 3.91375C6.25079 3.40883 5.84147 2.99951 5.33655 2.99951H1C0.447715 2.99951 0 3.44723 0 3.99951Z" fill="#0A6135"/>
<g id="Group 64211">
<rect id="Rectangle 2707" x="1.625" y="1.61572" width="10.2029" height="11.5378" rx="2" fill="#D2D8DF"/>
<rect id="Rectangle 2712" x="2.08594" y="0.691895" width="10.2029" height="11.5378" rx="2" fill="#EFF3F8"/>
<rect id="Rectangle 2711" x="3.05469" y="0.5" width="9.2029" height="10.5378" rx="1.5" fill="white" stroke="#F2F2F2"/>
<path id="Union" fill-rule="evenodd" clip-rule="evenodd" d="M4.17578 2.19282C4.17578 2.00165 4.33075 1.84668 4.52192 1.84668H7.07602C7.26719 1.84668 7.42216 2.00165 7.42216 2.19282C7.42216 2.38398 7.26719 2.53895 7.07602 2.53895H4.52192C4.33075 2.53895 4.17578 2.38398 4.17578 2.19282ZM4.17578 3.80841C4.17578 3.61725 4.33075 3.46228 4.52192 3.46228H10.7862C10.9773 3.46228 11.1323 3.61725 11.1323 3.80841C11.1323 3.99958 10.9773 4.15455 10.7862 4.15455H4.52192C4.33075 4.15455 4.17578 3.99958 4.17578 3.80841ZM4.52192 5.07691C4.33075 5.07691 4.17578 5.23188 4.17578 5.42305C4.17578 5.61421 4.33075 5.76918 4.52192 5.76918H10.7862C10.9773 5.76918 11.1323 5.61421 11.1323 5.42305C11.1323 5.23188 10.9773 5.07691 10.7862 5.07691H4.52192Z" fill="#BFC8D2"/>
</g>
<path id="Vector 271" d="M12.1206 15.0003H0L2.90111 8.14442C3.21419 7.40455 3.9396 6.92383 4.74299 6.92383H14.5282C15.2342 6.92383 15.7179 7.63576 15.4578 8.29218L13.0503 14.3687C12.8992 14.7499 12.5307 15.0003 12.1206 15.0003Z" fill="#24A36F"/>
</g>
</svg>
