<svg width="16" height="16" viewBox="0 0 16 16" fill="none" xmlns="http://www.w3.org/2000/svg">
<g id="&#231;&#187;&#132; 237" clip-path="url(#clip0_690_30429)">
<g id="Frame">
<path id="Vector" d="M13.856 11.3975H3.84161C3.02963 11.3975 2.37041 10.7383 2.37041 9.92629C2.37041 9.11432 3.02963 8.45509 3.84161 8.45509H6.49441C7.80724 8.45509 8.86961 7.39272 8.86961 6.07989C8.86961 4.76706 7.80724 3.70469 6.49441 3.70469H2.13121C1.88078 3.70469 1.67921 3.90626 1.67921 4.15669C1.67921 4.40712 1.88078 4.60869 2.13121 4.60869H6.49761C7.30958 4.60869 7.96881 5.26792 7.96881 6.07989C7.96881 6.89186 7.30958 7.55109 6.49761 7.55109H3.84161C2.52878 7.55109 1.46641 8.61346 1.46641 9.92629C1.46641 11.2391 2.52878 12.3015 3.84161 12.3015H13.856C14.1064 12.3015 14.308 12.0999 14.308 11.8495C14.308 11.5985 14.1026 11.3975 13.856 11.3975Z" fill="#23955C" stroke="#23955C" stroke-width="0.2"/>
</g>
</g>
<defs>
<clipPath id="clip0_690_30429">
<rect width="16" height="16" fill="white"/>
</clipPath>
</defs>
</svg>
