<?xml version="1.0" standalone="no"?><!DOCTYPE svg PUBLIC "-//W3C//DTD SVG 1.1//EN" "http://www.w3.org/Graphics/SVG/1.1/DTD/svg11.dtd"><svg t="1688008133767" class="icon" viewBox="0 0 1024 1024" version="1.1" xmlns="http://www.w3.org/2000/svg" p-id="1487" xmlns:xlink="http://www.w3.org/1999/xlink" width="128" height="128"><path d="M626.752 928a19.008 19.008 0 0 1-7.808 0 252.992 252.992 0 0 1-98.56-56.064 29.12 29.12 0 0 1-8.384-20.672 30.272 30.272 0 0 1 10.624-21.312 39.68 39.68 0 0 0 16.832-31.36 40.832 40.832 0 0 0-40.896-40.32 39.808 39.808 0 0 0-17.344 5.056 30.208 30.208 0 0 1-24.064 0 27.328 27.328 0 0 1-15.68-18.496c-6.4-22.4-9.792-45.568-10.112-68.864 0.256-21.312 3.072-42.56 8.384-63.232a30.208 30.208 0 0 1 14.08-17.92 26.304 26.304 0 0 1 22.4 0c4.416 0.768 8.96 0.768 13.44 0a40.896 40.896 0 0 0 40.832-40.32 40.32 40.32 0 0 0-14.016-29.696 27.968 27.968 0 0 1-0.576-41.408 254.72 254.72 0 0 1 105.28-56 27.968 27.968 0 0 1 34.688 18.496 38.656 38.656 0 0 0 37.568 28.544 39.744 39.744 0 0 0 38.08-28.544 27.392 27.392 0 0 1 34.112-18.56 262.08 262.08 0 0 1 104.704 56.064 28.608 28.608 0 0 1 8.96 20.672 28.032 28.032 0 0 1-9.536 20.736 40.32 40.32 0 0 0-13.952 29.696 40.896 40.896 0 0 0 40.832 40.32c4.48 0.768 8.96 0.768 13.44 0a26.304 26.304 0 0 1 22.4 0 30.208 30.208 0 0 1 14.016 17.92c5.312 20.672 8.128 41.92 8.384 63.232-0.128 22.144-3.2 44.16-8.96 65.536a25.728 25.728 0 0 1-36.416 17.344 48.704 48.704 0 0 0-12.8 0 40.32 40.32 0 0 0-27.52 70.016 26.24 26.24 0 0 1 8.96 20.672 29.12 29.12 0 0 1-8.96 20.736c-28.928 25.984-63.36 45.12-100.736 56a28.544 28.544 0 0 1-31.04-10.88 26.368 26.368 0 0 1-4.224-10.944 39.68 39.68 0 0 0-38.656-34.176 40.32 40.32 0 0 0-39.168 34.176 28.736 28.736 0 0 1-12.352 19.584 29.056 29.056 0 0 1-16.256 3.904z m-46.976-80.128c9.472 6.016 19.392 11.264 29.632 15.68a95.232 95.232 0 0 1 168 0c11.968-5.44 23.424-11.968 34.176-19.584a95.68 95.68 0 0 1 85.12-141.696 205.824 205.824 0 0 0 0-25.728c0.512-8 0.512-16 0-24.064a96.832 96.832 0 0 1-96.896-96.32A94.72 94.72 0 0 1 811.008 512a175.232 175.232 0 0 0-40.32-21.824 94.656 94.656 0 0 1-156.8 0c-14.4 5.888-28.16 13.44-40.832 22.4a95.744 95.744 0 0 1-85.12 142.72c-0.576 8.064-0.576 16.128 0 24.128a143.36 143.36 0 0 0 0 26.24 97.536 97.536 0 0 1 105.792 95.808 92.352 92.352 0 0 1-13.952 46.464z" p-id="1488"></path><path d="M692.288 764.416a87.872 87.872 0 1 1 0-175.744 87.872 87.872 0 0 1 0 175.744z m0-119.808a32.448 32.448 0 1 0 0 64.896 32.448 32.448 0 0 0 0-64.896zM470.592 290.752c-40.896 0-400.32-3.328-400.32-112 0-108.608 359.424-112 400.32-112 40.896 0 400.32 2.816 400.32 112S512 290.752 470.592 290.752z m-342.656-112c21.248 21.312 144.448 56 342.656 56s320.832-34.688 342.08-56c-21.248-21.76-144.448-55.936-342.08-55.936-197.632 0-321.408 34.112-342.656 55.936zM391.04 512C310.912 507.328 145.472 492.8 89.344 439.808c-7.808-7.36-10.88-48.832-10.88-59.648a27.968 27.968 0 0 1 19.84-8.192 28.544 28.544 0 0 1 27.968 27.968c7.232 11.2 85.632 45.376 265.92 56a27.968 27.968 0 0 1 26.88 29.12 28.544 28.544 0 0 1-27.968 26.88z m-42.56 219.52h-4.48c-91.2-7.488-196.608-24-245.76-60.416-18.624-13.76-19.84-50.048-19.84-66.944a27.968 27.968 0 0 1 47.808 19.84c6.144 9.472 70.528 39.168 223.936 51.456a27.968 27.968 0 1 1 0 56h-1.664z" p-id="1489"></path><path d="M408.96 959.872c-79.552 0-336-19.584-336-112V178.752a27.968 27.968 0 1 1 56 0v669.12c8.96 14.016 101.952 48.128 283.904 56a29.184 29.184 0 0 1 26.88 29.12 27.968 27.968 0 0 1-30.784 26.88z m433.92-591.296a27.968 27.968 0 0 1-28.032-27.968V178.752a27.968 27.968 0 1 1 56 0v161.856a28.032 28.032 0 0 1-27.968 27.968z" p-id="1490"></path></svg>