<svg width="17" height="16" viewBox="0 0 17 16" >
<g id="&#231;&#187;&#132; 250" clip-path="url(#clip0_759_5399)">
<g id="Frame" clip-path="url(#clip1_759_5399)">
<path id="Vector" d="M13.0604 11.1227C12.7131 11.1222 12.3722 11.2153 12.0734 11.3923L10.4468 9.76573C10.8302 9.23553 11.0319 8.59549 11.0216 7.94122C11.0113 7.28695 10.7897 6.65356 10.3897 6.13566L11.9809 4.54448C12.3702 4.80456 12.8407 4.91446 13.305 4.85375C13.7692 4.79305 14.1957 4.56587 14.505 4.21443C14.8144 3.863 14.9856 3.4112 14.987 2.943C14.9883 2.4748 14.8196 2.02204 14.5123 1.66884C14.2049 1.31564 13.7798 1.08604 13.3159 1.02268C12.852 0.959328 12.3809 1.06654 11.9901 1.32439C11.5993 1.58224 11.3154 1.97319 11.1911 2.42461C11.0669 2.87602 11.1107 3.35719 11.3145 3.77871L9.64642 5.44681C9.14717 5.11772 8.56159 4.94397 7.96364 4.9475C7.36569 4.95104 6.7822 5.13171 6.28688 5.46669L4.65422 3.84181C4.87282 3.42622 4.93307 2.94538 4.82378 2.4887C4.71448 2.03202 4.44307 1.63056 4.06001 1.35897C3.67695 1.08737 3.20829 0.96411 2.74117 1.01211C2.27405 1.0601 1.84026 1.27608 1.52042 1.6199C1.20059 1.96372 1.01649 2.41198 1.00235 2.88134C0.988199 3.35071 1.14497 3.80924 1.44351 4.1717C1.74206 4.53415 2.16206 4.77587 2.62544 4.85191C3.08882 4.92795 3.56405 4.83314 3.96277 4.58511L5.55223 6.16764C5.16652 6.68004 4.95328 7.30158 4.94318 7.94285C4.93309 8.58411 5.12666 9.21206 5.49605 9.73635L3.87116 11.3612C3.45984 11.1354 2.98051 11.0667 2.52231 11.1678C2.06411 11.2689 1.65823 11.533 1.38014 11.911C1.10205 12.2889 0.970679 12.755 1.01045 13.2225C1.05023 13.69 1.25845 14.1272 1.59638 14.4527C1.93432 14.7783 2.37898 14.97 2.84767 14.9922C3.31637 15.0145 3.7772 14.8658 4.14446 14.5737C4.51173 14.2817 4.76045 13.8662 4.84435 13.4046C4.92826 12.9429 4.84165 12.4665 4.60063 12.0639L6.20823 10.4554C6.71953 10.8245 7.33322 11.0248 7.96377 11.0285C8.59432 11.0322 9.21032 10.8392 9.72594 10.4762L11.3681 12.1184C11.1612 12.4901 11.0823 12.9196 11.1436 13.3406C11.2048 13.7616 11.4029 14.1508 11.7073 14.4481C12.0116 14.7454 12.4053 14.9343 12.8276 14.9857C13.25 15.0372 13.6775 14.9482 14.0443 14.7326C14.4111 14.5171 14.6968 14.1868 14.8573 13.7928C15.0178 13.3988 15.0443 12.9629 14.9326 12.5524C14.8209 12.1418 14.5773 11.7795 14.2392 11.5211C13.9012 11.2627 13.4876 11.1227 13.0621 11.1227H13.0604ZM13.0604 2.01294C13.2435 2.01294 13.4225 2.06726 13.5748 2.16901C13.727 2.27076 13.8457 2.41538 13.9157 2.58457C13.9857 2.75377 14.004 2.93993 13.9682 3.11952C13.9324 3.2991 13.8442 3.46404 13.7147 3.59346C13.5851 3.72288 13.4201 3.81098 13.2405 3.8466C13.0609 3.88222 12.8747 3.86376 12.7056 3.79357C12.5365 3.72337 12.3919 3.60459 12.2903 3.45226C12.1887 3.29992 12.1346 3.12086 12.1347 2.93775C12.135 2.69239 12.2326 2.45717 12.4062 2.28376C12.5797 2.11035 12.8151 2.01294 13.0604 2.01294ZM2.93771 3.86341C2.7546 3.86358 2.57554 3.80944 2.4232 3.70783C2.27086 3.60622 2.15209 3.46171 2.08189 3.29258C2.0117 3.12346 1.99324 2.93731 2.02886 2.75769C2.06448 2.57807 2.15257 2.41305 2.282 2.28351C2.41142 2.15396 2.57636 2.06572 2.75594 2.02993C2.93553 1.99414 3.12169 2.01242 3.29089 2.08246C3.46008 2.1525 3.6047 2.27114 3.70645 2.42338C3.8082 2.57563 3.86252 2.75463 3.86252 2.93775C3.86252 3.1831 3.76511 3.41842 3.5917 3.59199C3.41829 3.76556 3.18306 3.86318 2.93771 3.86341ZM2.93771 13.9861C2.7546 13.9863 2.57554 13.9321 2.4232 13.8305C2.27086 13.7289 2.15209 13.5844 2.08189 13.4153C2.0117 13.2462 1.99324 13.06 2.02886 12.8804C2.06448 12.7008 2.15257 12.5358 2.282 12.4062C2.41142 12.2767 2.57636 12.1884 2.75594 12.1526C2.93553 12.1168 3.12169 12.1351 3.29089 12.2052C3.46008 12.2752 3.6047 12.3938 3.70645 12.5461C3.8082 12.6983 3.86252 12.8773 3.86252 13.0605C3.86229 13.3057 3.76481 13.5409 3.59145 13.7144C3.41809 13.888 3.18299 13.9857 2.93771 13.9861ZM5.95585 7.99046C5.95585 7.58977 6.07467 7.19807 6.29728 6.86491C6.51989 6.53175 6.8363 6.27208 7.20649 6.11875C7.57668 5.96541 7.98403 5.92529 8.37702 6.00346C8.77001 6.08163 9.13099 6.27458 9.41432 6.55791C9.69765 6.84124 9.8906 7.20223 9.96877 7.59522C10.0469 7.98821 10.0068 8.39555 9.85349 8.76574C9.70015 9.13593 9.44048 9.45234 9.10732 9.67495C8.77416 9.89756 8.38247 10.0164 7.98178 10.0164C7.44468 10.0157 6.92978 9.80203 6.54999 9.42224C6.17021 9.04246 5.95654 8.52755 5.95585 7.99046ZM13.0604 13.9861C12.8773 13.9863 12.6982 13.9321 12.5459 13.8305C12.3936 13.7289 12.2748 13.5844 12.2046 13.4153C12.1344 13.2462 12.1159 13.06 12.1516 12.8804C12.1872 12.7008 12.2753 12.5358 12.4047 12.4062C12.5341 12.2767 12.6991 12.1884 12.8786 12.1526C13.0582 12.1168 13.2444 12.1351 13.4136 12.2052C13.5828 12.2752 13.7274 12.3938 13.8292 12.5461C13.9309 12.6983 13.9852 12.8773 13.9852 13.0605C13.985 13.3057 13.8875 13.5409 13.7141 13.7144C13.5408 13.888 13.3057 13.9857 13.0604 13.9861Z" />
</g>
</g>
<defs>
<clipPath id="clip0_759_5399">
<rect width="16.0804" height="16" transform="translate(0.0957031)"/>
</clipPath>
<clipPath id="clip1_759_5399">
<rect width="14" height="14" transform="translate(1 1)"/>
</clipPath>
</defs>
</svg>
