<svg width="16" height="16" viewBox="0 0 16 16" fill="none" xmlns="http://www.w3.org/2000/svg">
<g id="&#231;&#187;&#132; 237" clip-path="url(#clip0_736_6673)">
<g id="Frame">
<path id="Vector" d="M6.08906 7.16641C5.075 7.16641 4.25 6.34141 4.25 5.32734C4.25 4.31328 5.075 3.48828 6.08906 3.48828C7.10312 3.48828 7.92812 4.31328 7.92812 5.32734C7.92812 6.34141 7.10312 7.16641 6.08906 7.16641ZM6.08906 4.48984C5.62656 4.48984 5.25 4.86641 5.25 5.32891C5.25 5.79141 5.62656 6.16797 6.08906 6.16797C6.55156 6.16797 6.92812 5.78984 6.92812 5.32891C6.92812 4.86641 6.55156 4.48984 6.08906 4.48984Z" fill="#23955C"/>
<path id="Vector_2" d="M6.13087 12.6238L5.73868 12.1457C5.70587 12.1051 4.91368 11.1395 4.06368 9.88945C2.89806 8.17695 2.22462 6.81758 2.06056 5.8457C1.95587 5.22695 1.98712 4.61445 2.15274 4.02539C2.31212 3.46289 2.58399 2.94883 2.96524 2.49883C3.75118 1.56758 4.90431 1.0332 6.12618 1.0332C6.76212 1.0332 7.37306 1.17383 7.94493 1.45039C8.49024 1.71445 8.98087 2.10195 9.36056 2.56914C9.72774 3.01914 9.98556 3.52695 10.1277 4.07852C10.2793 4.66133 10.2918 5.26133 10.1668 5.86289C9.96681 6.82539 9.28868 8.17852 8.14806 9.88477C7.31368 11.1332 6.54806 12.0973 6.51524 12.1379L6.13087 12.6238ZM6.12462 2.03477C5.19806 2.03477 4.32462 2.43945 3.72774 3.1457C3.44024 3.48477 3.23399 3.87227 3.11524 4.29727C2.98868 4.74258 2.96681 5.2082 3.04649 5.67852C3.14337 6.24727 3.54181 7.34258 4.89181 9.32695C5.35743 10.0113 5.81212 10.616 6.11993 11.0145C6.42149 10.6145 6.86524 10.0082 7.32149 9.32383C8.37149 7.75195 9.01681 6.48477 9.18868 5.66133C9.37149 4.77852 9.15743 3.90508 8.58556 3.20195C8.29649 2.84727 7.92462 2.55352 7.50899 2.35195C7.07306 2.14102 6.60743 2.03477 6.12462 2.03477Z" fill="#23955C"/>
<path id="Vector_3" d="M13.4852 14.9289H6.49298C6.21684 14.9289 5.99298 14.705 5.99298 14.4289V14.4289C5.99298 14.1528 6.21684 13.9289 6.49298 13.9289H13.4852C13.7649 13.9289 13.9914 13.7023 13.9914 13.4227C13.9914 13.1305 13.7524 12.8914 13.4602 12.8914H2.82735C2.34454 12.8914 1.88985 12.7023 1.54767 12.3602C1.20548 12.018 1.01798 11.5633 1.01954 11.0789C1.0211 10.082 1.83517 9.26953 2.83204 9.26953H3.88985C4.166 9.26953 4.38985 9.49339 4.38985 9.76953V9.76953C4.38985 10.0457 4.166 10.2695 3.88985 10.2695H2.83204C2.38517 10.2695 2.0211 10.6336 2.01954 11.0805C2.01954 11.2961 2.10235 11.4992 2.25548 11.6523C2.4086 11.8055 2.61173 11.8914 2.82735 11.8914H13.4602C14.3039 11.8914 14.9914 12.5789 14.9914 13.4227C14.9914 14.2539 14.3149 14.9289 13.4852 14.9289Z" fill="#23955C"/>
</g>
</g>
<defs>
<clipPath id="clip0_736_6673">
<rect width="16" height="16" fill="white"/>
</clipPath>
</defs>
</svg>
