<?xml version="1.0" standalone="no"?><!DOCTYPE svg PUBLIC "-//W3C//DTD SVG 1.1//EN" "http://www.w3.org/Graphics/SVG/1.1/DTD/svg11.dtd"><svg t="1688008129845" class="icon" viewBox="0 0 1024 1024" version="1.1" xmlns="http://www.w3.org/2000/svg" p-id="1330" xmlns:xlink="http://www.w3.org/1999/xlink" width="128" height="128"><path d="M575.744 895.872h-352A95.808 95.808 0 0 1 127.872 800v-576c0-25.6 9.92-49.792 28.096-67.968 18.112-18.112 42.176-28.16 67.84-28.16h576A96.192 96.192 0 0 1 895.808 224V576a32 32 0 1 0 64 0V224A160 160 0 0 0 799.68 63.936h-576A159.68 159.68 0 0 0 64 224v576a159.424 159.424 0 0 0 159.808 159.808h352a32 32 0 1 0 0-63.936z" p-id="1331"></path><path d="M925.376 758.208l-83.584-83.584a118.272 118.272 0 0 0-141.952-19.2 31.616 31.616 0 0 0-3.904-4.8l-45.696-45.632a256 256 0 1 0-45.248 45.248l45.632 45.696a32 32 0 0 0 4.8 3.84c-25.664 45.184-19.264 103.552 19.2 142.08l83.584 83.52a118.208 118.208 0 1 0 167.168-167.168zM522.688 624.96a191.68 191.68 0 0 1-182.016-17.728 191.68 191.68 0 0 1-51.904-266.56 191.68 191.68 0 0 1 266.56-51.904 191.616 191.616 0 0 1 51.904 266.56c-20.864 30.912-50.176 55.04-84.48 69.632z m357.44 255.168a54.208 54.208 0 0 1-76.672 0l-83.584-83.584a54.208 54.208 0 1 1 76.672-76.672l83.584 83.584a54.208 54.208 0 0 1 0 76.672z" p-id="1332"></path></svg>