<svg width="16" height="16" viewBox="0 0 16 16" xmlns="http://www.w3.org/2000/svg">
<g id="&#231;&#187;&#132; 248" clip-path="url(#clip0_759_5367)">
<g id="Frame">
<path id="Vector" d="M13.5 2.5H10.9295C10.8197 2.07146 10.5705 1.69158 10.2212 1.42006C9.87198 1.14854 9.44239 1.00078 9 1C8.46957 1 7.96086 1.21071 7.58579 1.58579C7.21071 1.96086 7 2.46957 7 3C7 3.53043 7.21071 4.03914 7.58579 4.41421C7.96086 4.78929 8.46957 5 9 5C9.44239 4.99922 9.87198 4.85146 10.2212 4.57994C10.5705 4.30842 10.8197 3.92854 10.9295 3.5H13.5C13.6326 3.5 13.7598 3.55268 13.8536 3.64645C13.9473 3.74021 14 3.86739 14 4V8.5C14 8.63261 13.9473 8.75979 13.8536 8.85355C13.7598 8.94732 13.6326 9 13.5 9H8.75C8.61739 9 8.49021 9.05268 8.39645 9.14645C8.30268 9.24021 8.25 9.36739 8.25 9.5C8.25 9.63261 8.30268 9.75979 8.39645 9.85355C8.49021 9.94732 8.61739 10 8.75 10H13.5C13.8978 10 14.2794 9.84196 14.5607 9.56066C14.842 9.27936 15 8.89782 15 8.5V4C15 3.60218 14.842 3.22064 14.5607 2.93934C14.2794 2.65804 13.8978 2.5 13.5 2.5ZM9 4C8.86865 3.99997 8.73858 3.97406 8.61724 3.92376C8.4959 3.87347 8.38565 3.79976 8.29279 3.70686C8.19993 3.61395 8.12628 3.50367 8.07604 3.3823C8.02581 3.26093 7.99997 3.13085 8 2.9995C8.00003 2.86815 8.02594 2.73808 8.07623 2.61674C8.12653 2.4954 8.20024 2.38515 8.29314 2.29229C8.38605 2.19943 8.49633 2.12578 8.6177 2.07554C8.73907 2.02531 8.86915 1.99947 9.0005 1.9995C9.26578 1.99957 9.52017 2.10501 9.70771 2.29264C9.89525 2.48027 10.0006 2.73472 10.0005 3C10.0004 3.26528 9.89499 3.51967 9.70736 3.70721C9.51973 3.89475 9.26528 4.00007 9 4Z" />
<path id="Vector_2" d="M13 11C12.1035 11 11.3535 11.594 11.0995 12.407H6C5.8715 12.4066 5.74813 12.3565 5.65569 12.2672C5.56325 12.178 5.5089 12.0564 5.504 11.928C5.97583 11.8076 6.38733 11.5187 6.66094 11.1159C6.93454 10.7131 7.05137 10.2241 6.98939 9.74108C6.92742 9.25807 6.69093 8.81442 6.32449 8.49371C5.95804 8.17301 5.48695 7.99741 5 8C4.2615 8 3.624 8.4045 3.2775 9H2.5C2.36739 9 2.24021 8.94732 2.14645 8.85355C2.05268 8.75979 2 8.63261 2 8.5V4C2 3.86739 2.05268 3.74021 2.14645 3.64645C2.24021 3.55268 2.36739 3.5 2.5 3.5H5.75C5.88261 3.5 6.00979 3.44732 6.10355 3.35355C6.19732 3.25979 6.25 3.13261 6.25 3C6.25 2.86739 6.19732 2.74021 6.10355 2.64645C6.00979 2.55268 5.88261 2.5 5.75 2.5H2.5C2.10218 2.5 1.72064 2.65804 1.43934 2.93934C1.15804 3.22064 1 3.60218 1 4V8.5C1 8.89782 1.15804 9.27936 1.43934 9.56066C1.72064 9.84196 2.10218 10 2.5 10H3C3.00072 10.4428 3.14876 10.8728 3.42079 11.2223C3.69282 11.5717 4.07337 11.8207 4.5025 11.93C4.50815 12.3236 4.66836 12.6991 4.94854 12.9756C5.22873 13.252 5.6064 13.4071 6 13.4075H11.042C11.119 13.7777 11.2994 14.1184 11.5623 14.3902C11.8251 14.6621 12.1596 14.8538 12.527 14.9432C12.8943 15.0327 13.2795 15.0161 13.6379 14.8956C13.9963 14.775 14.3131 14.5553 14.5517 14.2619C14.7902 13.9686 14.9408 13.6136 14.9858 13.2382C15.0308 12.8628 14.9685 12.4823 14.8061 12.1409C14.6437 11.7994 14.3878 11.511 14.0681 11.3091C13.7485 11.1072 13.3781 11 13 11ZM4 10C4.00003 9.86865 4.02594 9.73858 4.07624 9.61724C4.12653 9.4959 4.20024 9.38565 4.29314 9.29279C4.38605 9.19993 4.49633 9.12628 4.6177 9.07604C4.73907 9.02581 4.86915 8.99997 5.0005 9C5.13185 9.00003 5.26192 9.02594 5.38326 9.07623C5.5046 9.12653 5.61485 9.20024 5.70771 9.29314C5.80057 9.38605 5.87422 9.49633 5.92446 9.6177C5.97469 9.73907 6.00053 9.86915 6.0005 10.0005C6.00043 10.2658 5.89499 10.5202 5.70736 10.7077C5.51973 10.8952 5.26528 11.0006 5 11.0005C4.73472 11.0004 4.48033 10.895 4.29279 10.7074C4.10525 10.5197 3.99993 10.2653 4 10ZM13 14C12.8686 14 12.7386 13.9741 12.6172 13.9238C12.4959 13.8735 12.3856 13.7998 12.2928 13.7069C12.1999 13.614 12.1263 13.5037 12.076 13.3823C12.0258 13.2609 12 13.1309 12 12.9995C12 12.8681 12.0259 12.7381 12.0762 12.6167C12.1265 12.4954 12.2002 12.3851 12.2931 12.2923C12.386 12.1994 12.4963 12.1258 12.6177 12.0755C12.7391 12.0253 12.8691 11.9995 13.0005 11.9995C13.2658 11.9996 13.5202 12.105 13.7077 12.2926C13.8952 12.4803 14.0006 12.7347 14.0005 13C14.0004 13.2653 13.895 13.5197 13.7074 13.7072C13.5197 13.8947 13.2653 14.0001 13 14Z" />
</g>
</g>
<defs>
<clipPath id="clip0_759_5367">
<rect width="16" height="16"/>
</clipPath>
</defs>
</svg>
