<svg width="20" height="20" viewBox="0 0 20 20" fill="none" xmlns="http://www.w3.org/2000/svg">
<g id="Frame">
<path id="Vector" d="M19.092 10.0023C19.092 9.89805 19.0735 9.81088 19.0683 9.8005C19.0643 9.74886 19.0458 9.65474 19.0287 9.60534C19.0241 9.59304 19.0181 9.58015 19.0129 9.56786C19.0036 9.53953 18.9937 9.51183 18.9825 9.4898C17.306 5.98938 13.6963 3.63672 10.0015 3.63672C6.30744 3.63672 2.69809 5.98721 1.02912 9.46869C1.00901 9.50648 0.994815 9.54268 0.98591 9.57417C0.981959 9.58454 0.97734 9.5943 0.973724 9.60344C0.940737 9.69569 0.94009 9.75987 0.942724 9.74319C0.927235 9.81088 0.91304 9.9456 0.91304 9.9456C0.90909 9.98619 0.90909 10.0186 0.91371 10.0589C0.91371 10.0589 0.927882 10.1766 0.934823 10.2005C0.936787 10.2339 0.945357 10.2824 0.955579 10.3265H0.95491C0.963815 10.3642 0.976023 10.4008 0.992828 10.4366C1.00142 10.4643 1.01164 10.4902 1.02055 10.5097C2.6994 14.0107 6.30811 16.364 10.0015 16.364C13.697 16.364 17.3066 14.0126 18.9641 10.5487C18.9898 10.5034 19.0063 10.4606 19.0175 10.4234C19.0228 10.4121 19.0274 10.402 19.0307 10.3919C19.0597 10.3113 19.0656 10.2415 19.063 10.2415L19.0624 10.2421C19.0742 10.1861 19.092 10.1024 19.092 10.0023ZM17.8679 10.0451C17.8673 10.0476 17.8659 10.0507 17.8646 10.0533C17.8626 10.0608 17.8594 10.0696 17.8573 10.0785C16.3654 13.1476 13.2155 15.2069 10.0015 15.2069C6.7955 15.2069 3.65113 13.1533 2.14439 10.0734C2.14075 10.0627 2.13812 10.0526 2.13417 10.0426C2.1335 10.0325 2.13154 10.0243 2.13089 10.0186C2.12957 10.0124 2.12825 10.0036 2.12725 9.99597V9.9881C2.13089 9.97519 2.1335 9.96231 2.13484 9.94814C2.13747 9.9406 2.13946 9.93335 2.14243 9.92517C3.63495 6.85446 6.78755 4.79419 10.0015 4.79419C13.2168 4.79419 16.3688 6.85633 17.8567 9.92232C17.858 9.9283 17.8593 9.93335 17.8613 9.93744C17.8626 9.94247 17.8639 9.94752 17.8666 9.95287C17.8699 9.97585 17.8725 9.99852 17.8758 10.0098C17.8719 10.0218 17.8699 10.0331 17.8679 10.0451Z" fill="#24A36F"/>
<path id="Vector_2" d="M9.99912 7.28613C8.50305 7.28613 7.28516 8.50343 7.28516 9.99979C7.28516 11.4959 8.50305 12.7138 9.99912 12.7138C11.4952 12.7138 12.7131 11.4959 12.7131 9.99979C12.7131 8.50343 11.4952 7.28613 9.99912 7.28613ZM9.99912 11.6282C9.10194 11.6282 8.37076 10.8976 8.37076 9.99981C8.37076 9.10234 9.10194 8.37176 9.99912 8.37176C10.8969 8.37176 11.6275 9.10236 11.6275 9.99981C11.6275 10.8976 10.8969 11.6282 9.99912 11.6282Z" fill="#24A36F"/>
</g>
</svg>
