<svg width="54" height="54" viewBox="0 0 54 54" fill="none" xmlns="http://www.w3.org/2000/svg">
<g id="warning">
<path id="Subtract" fill-rule="evenodd" clip-rule="evenodd" d="M27 49.5C39.4264 49.5 49.5 39.4264 49.5 27C49.5 14.5736 39.4264 4.5 27 4.5C14.5736 4.5 4.5 14.5736 4.5 27C4.5 39.4264 14.5736 49.5 27 49.5ZM27 16C28.1046 16 29 16.8954 29 18V27C29 28.1046 28.1046 29 27 29C25.8954 29 25 28.1046 25 27V18C25 16.8954 25.8954 16 27 16ZM27 34C25.8954 34 25 34.8954 25 36C25 37.1046 25.8954 38 27 38H27.0225C28.1271 38 29.0225 37.1046 29.0225 36C29.0225 34.8954 28.1271 34 27.0225 34H27Z" fill="#F6AC2D"/>
</g>
</svg>
