<svg width="17" height="16" viewBox="0 0 17 16" xmlns="http://www.w3.org/2000/svg">
<g id="&#231;&#187;&#132; 238" clip-path="url(#clip0_759_5393)">
<g id="Frame" clip-path="url(#clip1_759_5393)">
<path id="Vector" d="M11.1492 15C9.02822 15 7.29922 13.271 7.29922 11.15C7.29922 9.029 9.02822 7.3 11.1492 7.3C13.2702 7.3 14.9992 9.029 14.9992 11.15C14.9992 13.271 13.2702 15 11.1492 15ZM11.1492 8C9.41322 8 7.99922 9.414 7.99922 11.15C7.99922 12.886 9.41322 14.3 11.1492 14.3C12.8852 14.3 14.2992 12.886 14.2992 11.15C14.2992 9.414 12.8852 8 11.1492 8ZM7.29922 8.7C5.17822 8.7 3.44922 6.971 3.44922 4.85C3.44922 2.729 5.17822 1 7.29922 1C9.42022 1 11.1492 2.729 11.1492 4.85C11.1492 5.389 11.0372 5.907 10.8272 6.39C10.7502 6.565 10.5402 6.649 10.3652 6.565C10.1902 6.488 10.1062 6.278 10.1902 6.103C10.3652 5.704 10.4562 5.284 10.4562 4.843C10.4562 3.107 9.04222 1.693 7.30622 1.693C5.57022 1.693 4.15622 3.107 4.15622 4.843C4.15622 6.579 5.57022 7.993 7.30622 7.993C7.50222 7.993 7.65622 8.147 7.65622 8.343C7.65622 8.539 7.49522 8.7 7.29922 8.7Z" stroke-width="0.2"/>
<path id="Vector_2" d="M1.7 15H1C1 13.341 1.707 11.591 2.946 10.205C4.199 8.805 5.788 8 7.3 8V8.7C4.528 8.7 1.7 11.878 1.7 15ZM10.611 12.69C10.52 12.69 10.429 12.655 10.366 12.585L8.966 11.185C8.826 11.045 8.826 10.828 8.966 10.688C9.106 10.548 9.323 10.548 9.463 10.688L10.863 12.088C11.003 12.228 11.003 12.445 10.863 12.585C10.793 12.655 10.702 12.69 10.611 12.69Z" stroke-width="0.2"/>
<path id="Vector_3" d="M10.6469 12.7254C10.5559 12.7254 10.4649 12.6904 10.4019 12.6204C10.2619 12.4804 10.2619 12.2634 10.4019 12.1234L12.8519 9.67336C12.9919 9.53336 13.2089 9.53336 13.3489 9.67336C13.4889 9.81336 13.4889 10.0304 13.3489 10.1704L10.8989 12.6204C10.8289 12.6904 10.7379 12.7254 10.6469 12.7254Z" stroke-width="0.2"/>
</g>
</g>
<defs>
<clipPath id="clip0_759_5393">
<rect width="16.0804" height="16" transform="translate(0.0957031)"/>
</clipPath>
<clipPath id="clip1_759_5393">
<rect width="16" height="16" />
</clipPath>
</defs>
</svg>
