<svg width="16" height="16" viewBox="0 0 16 16" fill="none" xmlns="http://www.w3.org/2000/svg">
<g id="&#231;&#187;&#132; 236" clip-path="url(#clip0_690_30478)">
<g id="&#231;&#187;&#132; 246" clip-path="url(#clip1_690_30478)">
<g id="Frame">
<path id="Vector" d="M14.2967 9.94483H12.9527V8.86483C12.9527 8.31254 12.505 7.86483 11.9527 7.86483H8.66475V6.80083H9.88075C10.4887 6.80083 10.9847 6.30483 10.9847 5.69683V3.15283C10.9847 2.54483 10.4887 2.04883 9.88075 2.04883H6.38475C5.77675 2.04883 5.28075 2.54483 5.28075 3.15283V5.69683C5.28075 6.30483 5.77675 6.80083 6.38475 6.80083H7.65675V7.86483H4.32075C3.76847 7.86483 3.32075 8.31254 3.32075 8.86483V9.94483H2.07275C1.46475 9.94483 0.96875 10.4408 0.96875 11.0488V13.6008C0.96875 14.2088 1.46475 14.7048 2.07275 14.7048H5.56875C6.17675 14.7048 6.67275 14.2088 6.67275 13.6008V11.0488C6.67275 10.4408 6.17675 9.94483 5.56875 9.94483H4.24075V8.78483H12.0327V9.94483H10.8007C10.1927 9.94483 9.69675 10.4408 9.69675 11.0488V13.6008C9.69675 14.2088 10.1927 14.7048 10.8007 14.7048H14.2967C14.9047 14.7048 15.4007 14.2088 15.4007 13.6008V11.0488C15.4007 10.4408 14.9047 9.94483 14.2967 9.94483ZM5.56875 10.8648C5.67275 10.8648 5.75275 10.9448 5.75275 11.0488V13.6008C5.75275 13.7048 5.67275 13.7848 5.56875 13.7848H2.07275C1.96875 13.7848 1.88875 13.7048 1.88875 13.6008V11.0488C1.88875 10.9448 1.96875 10.8648 2.07275 10.8648H5.56875ZM6.39275 5.88083C6.28875 5.88083 6.20875 5.80083 6.20875 5.69683V3.15283C6.20875 3.04883 6.28875 2.96883 6.39275 2.96883H9.88875C9.99275 2.96883 10.0727 3.04883 10.0727 3.15283V5.69683C10.0727 5.80083 9.99275 5.88083 9.88875 5.88083H6.39275ZM14.4807 13.6008C14.4807 13.7048 14.4007 13.7848 14.2967 13.7848H10.8007C10.6967 13.7848 10.6167 13.7048 10.6167 13.6008V11.0488C10.6167 10.9448 10.6967 10.8648 10.8007 10.8648H14.2967C14.4007 10.8648 14.4807 10.9448 14.4807 11.0488V13.6008Z" fill="#23955C"/>
</g>
</g>
</g>
<defs>
<clipPath id="clip0_690_30478">
<rect width="16" height="16" fill="white"/>
</clipPath>
<clipPath id="clip1_690_30478">
<rect width="16" height="16" fill="white"/>
</clipPath>
</defs>
</svg>
